<svg xmlns:dc="http://purl.org/dc/elements/1.1/" xmlns:cc="http://creativecommons.org/ns#" xmlns:rdf="http://www.w3.org/1999/02/22-rdf-syntax-ns#" xmlns:svg="http://www.w3.org/2000/svg" xmlns="http://www.w3.org/2000/svg" xmlns:sodipodi="http://sodipodi.sourceforge.net/DTD/sodipodi-0.dtd" xmlns:inkscape="http://www.inkscape.org/namespaces/inkscape" version="1.1" x="0px" y="0px" viewBox="0 0 100 125"><g transform="translate(0,-952.36218)"><path style="font-size:medium;font-style:normal;font-variant:normal;font-weight:normal;font-stretch:normal;text-indent:0;text-align:start;text-decoration:none;line-height:normal;letter-spacing:normal;word-spacing:normal;text-transform:none;direction:ltr;block-progression:tb;writing-mode:lr-tb;text-anchor:start;baseline-shift:baseline;opacity:1;color:#000000;fill:#000000;fill-opacity:1;stroke:none;stroke-width:6;marker:none;visibility:visible;display:inline;overflow:visible;enable-background:accumulate;font-family:Sans;-inkscape-font-specification:Sans" d="M 50 22 C 25.182721 22 5 42.1827 5 67 A 3.0003 3.0003 0 0 0 8 70 L 17 70 A 3.0003 3.0003 0 1 0 17 64 L 11.3125 64 C 11.966571 55.514678 15.305858 47.818247 20.46875 41.71875 L 22.875 44.09375 A 3.0003 3.0003 0 1 0 27.125 39.875 L 24.6875 37.4375 C 30.75599 32.184278 38.475131 28.773573 47 28.125 L 47 34 A 3.0003 3.0003 0 1 0 53 34 L 53 28.125 C 61.524868 28.773573 69.244013 32.184278 75.3125 37.4375 L 72.875 39.875 A 3.0003 3.0003 0 1 0 77.125 44.09375 L 79.53125 41.71875 C 84.69414 47.818247 88.033417 55.514678 88.6875 64 L 83 64 A 3.0003 3.0003 0 1 0 83 70 L 92 70 A 3.0003 3.0003 0 0 0 95 67 C 94.99996 42.1827 74.817279 22 50 22 z M 50 57 C 48.119636 57 46.276475 57.5082 43.84375 58.1875 C 41.411025 58.8668 38.644429 59.77185 36 60.65625 C 30.711142 62.42515 25.96875 64.1875 25.96875 64.1875 A 3.0003 3.0003 0 0 0 25.96875 69.8125 C 25.96875 69.8125 30.711154 71.57485 36 73.34375 C 38.644423 74.22815 41.411019 75.10205 43.84375 75.78125 C 46.276481 76.46055 48.11962 77 50 77 C 55.487412 77 59.999872 72.4872 60 67 C 59.999972 61.5127 55.487255 57.0001 50 57 z M 50 63 C 52.244685 63.0001 53.999988 64.7553 54 67 C 53.999948 69.2446 52.244748 71 50 71 C 49.810115 71 47.736679 70.6333 45.46875 70 C 43.200821 69.3667 40.494241 68.52185 37.90625 67.65625 C 36.923858 67.32775 36.949239 67.317 36.03125 67 C 36.949242 66.683 36.923855 66.67225 37.90625 66.34375 C 40.494249 65.47815 43.200822 64.60195 45.46875 63.96875 C 47.736678 63.33545 49.810144 63 50 63 z " transform="translate(0,952.36218)"/></g><text x="0" y="115" fill="#000000" font-size="5px" font-weight="bold" font-family="'Helvetica Neue', Helvetica, Arial-Unicode, Arial, Sans-serif">Created by Icons Bazaar</text><text x="0" y="120" fill="#000000" font-size="5px" font-weight="bold" font-family="'Helvetica Neue', Helvetica, Arial-Unicode, Arial, Sans-serif">from the Noun Project</text></svg>